<svg xmlns="http://www.w3.org/2000/svg">
    <!--!Font Awesome Free v7.1.0 by @fontawesome - https://fontawesome.com License - https://fontawesome.com/license/free Copyright 2025 Fonticons, Inc.-->
    <symbol id="download" viewBox="0 0 640 640">
        <path d="M352 96C352 78.3 337.7 64 320 64C302.3 64 288 78.3 288 96L288 306.7L246.6 265.3C234.1 252.8 213.8 252.8 201.3 265.3C188.8 277.8 188.8 298.1 201.3 310.6L297.3 406.6C309.8 419.1 330.1 419.1 342.6 406.6L438.6 310.6C451.1 298.1 451.1 277.8 438.6 265.3C426.1 252.8 405.8 252.8 393.3 265.3L352 306.7L352 96zM160 384C124.7 384 96 412.7 96 448L96 480C96 515.3 124.7 544 160 544L480 544C515.3 544 544 515.3 544 480L544 448C544 412.7 515.3 384 480 384L433.1 384L376.5 440.6C345.3 471.8 294.6 471.8 263.4 440.6L206.9 384L160 384zM464 440C477.3 440 488 450.7 488 464C488 477.3 477.3 488 464 488C450.7 488 440 477.3 440 464C440 450.7 450.7 440 464 440z"/>
    </symbol>
    <symbol id="envelope" viewBox="0 0 640 640">
        <path d="M112 128C85.5 128 64 149.5 64 176C64 191.1 71.1 205.3 83.2 214.4L291.2 370.4C308.3 383.2 331.7 383.2 348.8 370.4L556.8 214.4C568.9 205.3 576 191.1 576 176C576 149.5 554.5 128 528 128L112 128zM64 260L64 448C64 483.3 92.7 512 128 512L512 512C547.3 512 576 483.3 576 448L576 260L377.6 408.8C343.5 434.4 296.5 434.4 262.4 408.8L64 260z"/>
    </symbol>
    <symbol id="github-square" viewBox="0 0 640 640">
        <path d="M590 127.143C590 84.5938 555.406 50 512.857 50H127.143C84.5938 50 50 84.5938 50 127.143V512.857C50 555.406 84.5938 590 127.143 590H512.857C555.406 590 590 555.406 590 512.857V127.143ZM370.384 502.853C370.384 500.683 370.384 495.621 370.504 488.871C370.625 475.13 370.625 454.156 370.625 436.196C370.625 417.393 364.357 405.46 357.005 399.192C401.603 394.25 448.612 388.103 448.612 311.08C448.612 289.143 440.777 278.174 428 264.071C430.049 258.888 436.92 237.554 425.951 209.83C409.196 204.647 370.866 231.406 370.866 231.406C338.804 222.366 302.643 222.366 270.58 231.406C270.58 231.406 232.25 204.647 215.496 209.83C204.527 237.433 211.277 258.768 213.446 264.071C200.67 278.174 194.643 289.143 194.643 311.08C194.643 387.741 239.603 394.25 284.201 399.192C278.415 404.375 273.232 413.295 271.424 426.071C259.973 431.254 230.683 440.174 213.205 409.317C202.237 390.272 182.469 388.705 182.469 388.705C162.942 388.464 181.143 401 181.143 401C194.161 407.027 203.321 430.17 203.321 430.17C215.013 465.969 270.942 453.915 270.942 453.915C270.942 464.763 271.063 480.071 271.063 490.799C271.063 496.585 271.183 501.165 271.183 502.853C271.183 508.036 267.567 514.304 257.321 512.496C177.768 485.857 122.08 410.161 122.08 321.688C122.08 211.036 206.696 127.022 317.348 127.022C428 127.022 517.679 211.036 517.679 321.688C517.799 410.161 463.799 485.978 384.246 512.496C374.121 514.304 370.384 508.036 370.384 502.853Z"/>
    </symbol>
    <symbol id="gitlab-square" viewBox="0 0 640 640">
        <path d="M50 127.143V512.857C50 555.406 84.5938 590 127.143 590H512.857C555.406 590 590 555.406 590 512.857V127.143C590 84.5938 555.406 50 512.857 50H127.143C84.5938 50 50 84.5938 50 127.143ZM456.808 142.21L510.567 282.513L511.049 283.96C517.799 304.21 519.728 326.388 513.821 347.241C507.795 367.973 495.259 386.295 477.902 399.433L477.661 399.554L395.214 461.268L330.004 510.567C329.402 510.808 328.679 511.17 327.955 511.531C325.545 512.737 322.652 513.942 319.879 513.942C316.263 513.942 311.683 511.772 309.875 510.567L244.545 461.268L162.701 399.915L162.219 399.554L161.978 399.433C144.741 386.415 132.085 368.094 126.179 347.241C120.272 326.388 121.116 304.21 128.83 283.96L129.433 282.513L183.313 142.21C184.397 139.438 186.326 137.027 188.737 135.46C190.665 134.254 192.835 133.531 195.004 133.29C196.571 132.446 197.536 132.808 199.103 133.411C199.826 133.652 200.549 134.013 201.513 134.254C202.719 134.737 203.442 135.339 204.406 136.062C205.129 136.545 205.853 137.268 206.938 137.871C208.384 139.558 209.589 141.487 210.192 143.656L245.388 254.79H393.527L429.929 143.656C430.531 141.487 431.616 139.558 433.063 137.871C434.509 136.183 436.438 134.978 438.487 134.134C440.536 133.411 442.826 133.049 444.996 133.29C447.165 133.531 449.335 134.254 451.263 135.46C453.674 137.027 455.723 139.438 456.808 142.21Z"/>
    </symbol>
    <symbol id="linkedin-square"  viewBox="0 0 640 640">
        <path d="M127.143 50C84.5938 50 50 84.5938 50 127.143V512.857C50 555.406 84.5938 590 127.143 590H512.857C555.406 590 590 555.406 590 512.857V127.143C590 84.5938 555.406 50 512.857 50H127.143ZM133.17 255.152H213.326V512.857H133.17V255.152ZM219.594 173.549C219.594 199.223 198.862 219.955 173.188 219.955C147.513 219.955 126.781 199.223 126.781 173.549C126.781 147.875 147.513 127.143 173.188 127.143C198.862 127.143 219.594 147.875 219.594 173.549ZM433.183 512.857V387.5C433.183 357.607 432.58 319.156 391.598 319.156C349.893 319.156 343.504 351.701 343.504 385.33V512.857H263.469V255.152H340.25V290.348H341.335C352.063 270.098 378.219 248.763 417.152 248.763C498.152 248.763 513.219 302.161 513.219 371.589V512.857H433.183Z"/>
    </symbol>
    <symbol id="devto-square" viewBox="0 0 640 640">
        <path d="M194.763 262.504C190.063 259.009 185.362 257.321 180.781 257.321H159.808V383.281H180.781C185.482 383.281 190.183 381.594 194.763 378.098C199.344 374.603 201.754 369.299 201.754 362.308V278.295C201.754 271.304 199.344 266 194.763 262.504ZM537.085 50H102.915C73.7455 50 50.1205 73.625 50 102.795V537.205C50.1205 566.375 73.7455 590 102.915 590H537.085C566.254 590 589.879 566.375 590 537.205V102.795C589.879 73.625 566.254 50 537.085 50ZM235.866 362.429C235.866 385.089 221.884 419.442 177.527 419.442H121.598V219.955H178.732C221.402 219.955 235.866 254.308 235.866 276.969V362.429ZM357.246 255.513H293V301.799H332.295V337.478H293V383.763H357.246V419.442H282.272C268.772 419.804 257.683 409.196 257.321 395.696V244.906C256.96 231.527 267.688 220.317 281.067 219.955H357.246V255.513ZM482.121 394.491C466.21 431.496 437.763 424.143 424.987 394.491L378.58 219.955H417.875L453.674 357.004L489.353 219.955H528.647L482.241 394.491H482.121Z"/>
    </symbol>
    <symbol id="globe" viewBox="0 0 640 640">
        <path d="M415.9 344L225 344C227.9 408.5 242.2 467.9 262.5 511.4C273.9 535.9 286.2 553.2 297.6 563.8C308.8 574.3 316.5 576 320.5 576C324.5 576 332.2 574.3 343.4 563.8C354.8 553.2 367.1 535.8 378.5 511.4C398.8 467.9 413.1 408.5 416 344zM224.9 296L415.8 296C413 231.5 398.7 172.1 378.4 128.6C367 104.2 354.7 86.8 343.3 76.2C332.1 65.7 324.4 64 320.4 64C316.4 64 308.7 65.7 297.5 76.2C286.1 86.8 273.8 104.2 262.4 128.6C242.1 172.1 227.8 231.5 224.9 296zM176.9 296C180.4 210.4 202.5 130.9 234.8 78.7C142.7 111.3 74.9 195.2 65.5 296L176.9 296zM65.5 344C74.9 444.8 142.7 528.7 234.8 561.3C202.5 509.1 180.4 429.6 176.9 344L65.5 344zM463.9 344C460.4 429.6 438.3 509.1 406 561.3C498.1 528.6 565.9 444.8 575.3 344L463.9 344zM575.3 296C565.9 195.2 498.1 111.3 406 78.7C438.3 130.9 460.4 210.4 463.9 296L575.3 296z"/>
    </symbol>
    <symbol id="moon" viewBox="0 0 640 640">
        <path d="M320 64C178.6 64 64 178.6 64 320C64 461.4 178.6 576 320 576C388.8 576 451.3 548.8 497.3 504.6C504.6 497.6 506.7 486.7 502.6 477.5C498.5 468.3 488.9 462.6 478.8 463.4C473.9 463.8 469 464 464 464C362.4 464 280 381.6 280 280C280 207.9 321.5 145.4 382.1 115.2C391.2 110.7 396.4 100.9 395.2 90.8C394 80.7 386.6 72.5 376.7 70.3C358.4 66.2 339.4 64 320 64z"/>
    </symbol>
    <symbol id="sun" viewBox="0 0 640 640">
        <path d="M210.2 53.9C217.6 50.8 226 51.7 232.7 56.1L320.5 114.3L408.3 56.1C415 51.7 423.4 50.9 430.8 53.9C438.2 56.9 443.4 63.5 445 71.3L465.9 174.5L569.1 195.4C576.9 197 583.5 202.4 586.5 209.7C589.5 217 588.7 225.5 584.3 232.2L526.1 320L584.3 407.8C588.7 414.5 589.5 422.9 586.5 430.3C583.5 437.7 576.9 443.1 569.1 444.6L465.8 465.4L445 568.7C443.4 576.5 438 583.1 430.7 586.1C423.4 589.1 414.9 588.3 408.2 583.9L320.4 525.7L232.6 583.9C225.9 588.3 217.5 589.1 210.1 586.1C202.7 583.1 197.3 576.5 195.8 568.7L175 465.4L71.7 444.5C63.9 442.9 57.3 437.5 54.3 430.2C51.3 422.9 52.1 414.4 56.5 407.7L114.7 320L56.5 232.2C52.1 225.5 51.3 217.1 54.3 209.7C57.3 202.3 63.9 196.9 71.7 195.4L175 174.6L195.9 71.3C197.5 63.5 202.9 56.9 210.2 53.9zM239.6 320C239.6 275.6 275.6 239.6 320 239.6C364.4 239.6 400.4 275.6 400.4 320C400.4 364.4 364.4 400.4 320 400.4C275.6 400.4 239.6 364.4 239.6 320zM448.4 320C448.4 249.1 390.9 191.6 320 191.6C249.1 191.6 191.6 249.1 191.6 320C191.6 390.9 249.1 448.4 320 448.4C390.9 448.4 448.4 390.9 448.4 320z"/>
    </symbol>
    <symbol id="circle-half-stroke" viewBox="0 0 640 640">
        <path d="M512 320C512 214 426 128 320 128L320 512C426 512 512 426 512 320zM64 320C64 178.6 178.6 64 320 64C461.4 64 576 178.6 576 320C576 461.4 461.4 576 320 576C178.6 576 64 461.4 64 320z"/>
    </symbol>
</svg>
